<?xml version="1.0" encoding="UTF-8" standalone="no"?>
<!-- Generator: Adobe Illustrator 16.0.0, SVG Export Plug-In . SVG Version: 6.00 Build 0)  -->

<svg
   xmlns:dc="http://purl.org/dc/elements/1.1/"
   xmlns:cc="http://creativecommons.org/ns#"
   xmlns:rdf="http://www.w3.org/1999/02/22-rdf-syntax-ns#"
   xmlns:svg="http://www.w3.org/2000/svg"
   xmlns="http://www.w3.org/2000/svg"
   xmlns:sodipodi="http://sodipodi.sourceforge.net/DTD/sodipodi-0.dtd"
   xmlns:inkscape="http://www.inkscape.org/namespaces/inkscape"
   version="1.1"
   id="Layer_1"
   x="0px"
   y="0px"
   width="20"
   height="20"
   viewBox="0 0 20.000001 20.000001"
   enable-background="new 0 0 36.711 36.711"
   xml:space="preserve"
   sodipodi:docname="fb.svg"
   inkscape:version="0.92.1 r15371"><metadata
   id="metadata3765"><rdf:RDF><cc:Work
       rdf:about=""><dc:format>image/svg+xml</dc:format><dc:type
         rdf:resource="http://purl.org/dc/dcmitype/StillImage" /><dc:title></dc:title></cc:Work></rdf:RDF></metadata><defs
   id="defs3763" /><sodipodi:namedview
   pagecolor="#ffffff"
   bordercolor="#666666"
   borderopacity="1"
   objecttolerance="10"
   gridtolerance="10"
   guidetolerance="10"
   inkscape:pageopacity="0"
   inkscape:pageshadow="2"
   inkscape:window-width="1366"
   inkscape:window-height="714"
   id="namedview3761"
   showgrid="true"
   inkscape:snap-grids="true"
   inkscape:zoom="6.4285911"
   inkscape:cx="18.355499"
   inkscape:cy="18.3555"
   inkscape:window-x="-8"
   inkscape:window-y="-8"
   inkscape:window-maximized="1"
   inkscape:current-layer="Layer_1"
   fit-margin-top="0"
   fit-margin-left="0"
   fit-margin-right="0"
   fit-margin-bottom="0"><inkscape:grid
     type="xygrid"
     id="grid3767"
     originx="0"
     originy="1.4648438e-006" /></sodipodi:namedview>
<path
   d="M 20,18.896788 C 20,19.506415 19.50587,20 18.896244,20 H 13.799679 V 12.255182 H 16.3989 l 0.389529,-3.018713 h -2.98875 V 7.309526 c 0,-0.873853 0.242434,-1.46877 1.496009,-1.46877 l 1.598431,-5.45e-4 V 3.140203 c -0.276756,-0.0365 -1.225246,-0.11931 -2.329002,-0.11931 -2.304487,0 -3.88276,1.406663 -3.88276,3.98954 V 9.236469 H 8.0760535 v 3.018713 H 10.682357 V 20 H 1.1037564 C 0.49412982,20 0,19.506415 0,18.896788 V 1.103756 C 0,0.49413 0.49412982,0 1.1037564,0 H 18.896244 C 19.50587,0 20,0.49413 20,1.103756 Z"
   id="path3758"
   style="fill:#ffffff;stroke-width:0.54479581"
   inkscape:connector-curvature="0" />
</svg>