<?xml version="1.0"?>
<!--Icons from directory ""-->
<svg xmlns="http://www.w3.org/2000/svg" width="23" height="70" viewBox="0 0 23 70"><svg xmlns:rdf="http://www.w3.org/1999/02/22-rdf-syntax-ns#" xmlns:cc="http://creativecommons.org/ns#" xmlns:dc="http://purl.org/dc/elements/1.1/" id="fb" enable-background="new 0 0 36.711 36.711" xml:space="preserve" height="20" viewBox="0 0 20.000001 20.000001" width="20" version="1.1" y="0" x="0px"><path id="fb-path3758" stroke-width=".54480" fill="#fff" d="m20 18.897c0 0.609-0.494 1.103-1.104 1.103h-5.096v-7.745h2.599l0.38953-3.0187h-2.9888v-1.9268c0-0.87385 0.24243-1.4688 1.496-1.4688l1.5984-0.000545v-2.7c-0.27676-0.0365-1.2252-0.11931-2.329-0.11931-2.3045 0-3.8828 1.4067-3.8828 3.9895v2.2261h-2.6059v3.0187h2.6059v7.745h-9.5782c-0.60967 0-1.1038-0.494-1.1038-1.103v-17.793c0-0.60987 0.49413-1.104 1.1038-1.104h17.792c0.61 0 1.104 0.49413 1.104 1.1038z"/></svg><svg xmlns:rdf="http://www.w3.org/1999/02/22-rdf-syntax-ns#" xmlns:cc="http://creativecommons.org/ns#" xmlns:dc="http://purl.org/dc/elements/1.1/" id="inst" enable-background="new 0 0 36.663 36.664" xml:space="preserve" height="20" viewBox="0 0 20.000001 19.999999" width="20" version="1.1" y="20" x="0px"><path id="inst-path16" stroke-width=".54551" fill="#fff" d="m17.623 0h-15.246c-1.3132 0-2.377 1.0615-2.377 2.3724v15.256c0 1.309 1.0638 2.372 2.3768 2.372h15.246c1.313 0 2.377-1.062 2.377-2.372v-15.256c0.001-1.3105-1.064-2.372-2.377-2.372m-3.247 3.1251c0-0.3447 0.28-0.6251 0.625-0.6251h1.8755c0.34477 0 0.62462 0.28038 0.62462 0.62514v1.8754c0 0.3453-0.27985 0.62514-0.62462 0.62514h-1.8755c-0.34532 0-0.62517-0.27984-0.62517-0.62514zm-4.353 3.0613c2.1243 0 3.8465 1.7178 3.8465 3.8365 0 2.1192-1.7222 3.837-3.8465 3.837s-3.8465-1.7172-3.8465-3.837c0-2.1187 1.7222-3.8365 3.8465-3.8365m8.1021 11.313c0 0.3453-0.27985 0.62514-0.62517 0.62514h-15c-0.34532 0-0.62517-0.28038-0.62517-0.62514v-9.3739h2.5003c-0.3257 0.4681-0.4353 1.343-0.4353 1.8979 0 3.3466 2.7293 6.0697 6.0837 6.0697s6.0842-2.7231 6.0842-6.0697c0-0.55531-0.0791-1.4161-0.48279-1.8978h2.5001v9.3743z"/></svg><svg xmlns:rdf="http://www.w3.org/1999/02/22-rdf-syntax-ns#" xmlns:cc="http://creativecommons.org/ns#" xmlns:dc="http://purl.org/dc/elements/1.1/" id="twitter" enable-background="new 0 0 37.453 31.21" xml:space="preserve" height="17" viewBox="0 0 20.000006 17.000002" width="20" version="1.1" y="40" x="0px"><path id="twitter-path67" stroke-width=".53932" fill="#fff" d="m19.449 0.31428c-0.794 0.4913-1.671 0.84862-2.608 1.0398-0.746-0.83339-1.813-1.3541-2.994-1.3541-2.265 0-4.1028 1.9216-4.1028 4.2915 0 0.33661 0.035245 0.66288 0.10574 0.97716-3.4097-0.1792-6.4333-1.8857-8.4583-4.4854-0.3535 0.6361-0.55533 1.3736-0.55533 2.1601 0 1.4875 0.72413 2.8018 1.8253 3.5715-0.6713-0.0207-1.3052-0.2157-1.859-0.5343v0.05229c0 2.0801 1.4141 3.8149 3.2933 4.2077-0.34444 0.10131-0.70704 0.15088-1.0814 0.15088-0.26434 0-0.5228-0.0256-0.77272-0.07571 0.5228 1.7043 2.0373 2.9456 3.8337 2.9789-1.4045 1.152-3.1742 1.8383-5.0967 1.8383-0.33056 0-0.65791-0.02015-0.97885-0.05937 1.8157 1.2157 3.9736 1.9265 6.2897 1.9265 7.5489 0 11.675-6.5383 11.675-12.21 0-0.18682-0.0032-0.37311-0.01121-0.55612 0.80209-0.60568 1.499-1.3606 2.0464-2.2212-0.73481 0.34097-1.5257 0.57191-2.3561 0.6754 0.84802-0.53052 1.4985-1.3715 1.805-2.3737"/></svg><svg xmlns:rdf="http://www.w3.org/1999/02/22-rdf-syntax-ns#" xmlns:cc="http://creativecommons.org/ns#" xmlns:xlink="http://www.w3.org/1999/xlink" xmlns:dc="http://purl.org/dc/elements/1.1/" id="vk" enable-background="new 0 0 126 72" xml:space="preserve" height="13" viewBox="0 0 23 13" width="23" version="1.1" y="57" x="0px"><g id="vk-g37" transform="scale(.18373 .18201)">	<g id="vk-g35">		<defs id="vk-defs28">			<rect id="vk-SVGID_1_" y="0" width="126" x="0" height="72"/>		</defs>		<clipPath id="vk-SVGID_2_">			<use id="vk-use30" xlink:href="#vk-SVGID_1_" height="100%" width="100%" y="0" x="0" overflow="visible"/>		</clipPath>		<path id="vk-path33" fill="#fff" d="m124.52 64.503c-0.152-0.328-0.293-0.597-0.426-0.816-2.172-3.91-6.324-8.711-12.449-14.401l-0.129-0.134-0.066-0.063-0.066-0.066h-0.063c-2.781-2.651-4.543-4.434-5.281-5.344-1.348-1.738-1.652-3.5-0.914-5.281 0.523-1.348 2.477-4.19 5.867-8.538 1.781-2.302 3.195-4.149 4.234-5.539 7.52-9.996 10.777-16.383 9.777-19.164l-0.38-0.649c-0.262-0.39-0.934-0.75-2.02-1.074-1.086-0.327-2.477-0.383-4.172-0.163l-18.774 0.127c-0.301-0.105-0.738-0.099-1.301 0.034-0.566 0.13-0.852 0.195-0.852 0.195l-0.323 0.166-0.258 0.195c-0.219 0.129-0.457 0.354-0.719 0.683-0.258 0.325-0.477 0.707-0.648 1.142-2.047 5.258-4.367 10.145-6.977 14.663-1.609 2.695-3.086 5.031-4.434 7.009-1.348 1.976-2.477 3.434-3.387 4.366-0.914 0.935-1.738 1.685-2.477 2.246-0.742 0.567-1.305 0.806-1.695 0.72-0.391-0.091-0.762-0.177-1.109-0.263-0.609-0.39-1.098-0.922-1.465-1.597-0.371-0.672-0.621-1.52-0.75-2.543-0.129-1.021-0.207-1.899-0.23-2.637-0.02-0.738-0.008-1.785 0.035-3.129 0.043-1.349 0.066-2.263 0.066-2.738 0-1.653 0.031-3.446 0.094-5.379 0.066-1.935 0.121-3.465 0.164-4.594 0.043-1.13 0.066-2.324 0.066-3.587 0-1.258-0.078-2.245-0.23-2.965-0.148-0.715-0.379-1.41-0.684-2.086-0.305-0.672-0.75-1.194-1.336-1.562-0.586-0.371-1.313-0.664-2.18-0.883-2.305-0.521-5.238-0.802-8.8-0.849-8.082-0.086-13.274 0.438-15.579 1.567-0.914 0.476-1.738 1.129-2.476 1.953-0.781 0.957-0.891 1.479-0.328 1.565 2.609 0.392 4.453 1.325 5.543 2.802l0.39 0.784c0.305 0.563 0.61 1.563 0.911 2.996 0.304 1.435 0.5 3.021 0.585 4.758 0.219 3.173 0.219 5.888 0 8.149-0.214 2.257-0.421 4.019-0.617 5.277-0.195 1.262-0.488 2.28-0.879 3.065-0.39 0.782-0.652 1.258-0.785 1.435-0.129 0.172-0.238 0.28-0.324 0.323-0.566 0.22-1.152 0.328-1.762 0.328-0.605 0-1.344-0.304-2.215-0.914-0.867-0.608-1.769-1.444-2.703-2.512-0.933-1.062-1.988-2.55-3.164-4.464-1.172-1.911-2.386-4.168-3.648-6.778l-1.043-1.89c-0.653-1.215-1.543-2.985-2.672-5.313-1.129-2.323-2.129-4.569-2.996-6.745-0.348-0.91-0.871-1.605-1.567-2.087l-0.324-0.194c-0.219-0.172-0.566-0.356-1.043-0.556-0.48-0.194-0.976-0.336-1.5-0.422l-17.858 0.133c-1.824 0-3.063 0.414-3.715 1.238l-0.262 0.392c-0.129 0.218-0.195 0.565-0.195 1.043 0 0.48 0.129 1.065 0.391 1.762 2.609 6.124 5.441 12.034 8.507 17.725 3.063 5.696 5.723 10.278 7.981 13.754 2.262 3.478 4.562 6.758 6.91 9.84 2.348 3.086 3.902 5.063 4.66 5.935 0.762 0.871 1.36 1.519 1.793 1.953l1.629 1.565c1.043 1.043 2.574 2.293 4.598 3.746 2.02 1.457 4.258 2.891 6.711 4.305 2.457 1.41 5.312 2.563 8.574 3.453 3.258 0.892 6.43 1.25 9.516 1.074h7.496c1.52-0.129 2.672-0.609 3.453-1.433l0.258-0.324c0.176-0.262 0.34-0.665 0.488-1.208 0.152-0.542 0.23-1.14 0.23-1.792-0.043-1.868 0.098-3.551 0.422-5.051 0.324-1.496 0.695-2.625 1.109-3.388 0.414-0.762 0.879-1.401 1.402-1.922 0.52-0.522 0.891-0.836 1.109-0.944 0.215-0.11 0.387-0.185 0.52-0.231 1.043-0.347 2.27-0.007 3.684 1.012 1.41 1.024 2.734 2.281 3.977 3.781 1.238 1.5 2.727 3.184 4.461 5.051 1.742 1.867 3.262 3.258 4.563 4.172l1.305 0.781c0.871 0.524 2 1 3.391 1.435 1.391 0.437 2.605 0.547 3.648 0.327l16.688-0.262c1.648 0 2.934-0.272 3.844-0.815 0.914-0.544 1.453-1.142 1.629-1.789 0.176-0.653 0.184-1.392 0.035-2.22-0.158-0.824-0.31-1.402-0.459-1.727z" clip-path="url(#vk-SVGID_2_)"/>	</g></g></svg></svg>
