<?xml version="1.0" encoding="UTF-8" standalone="no"?>
<!-- Generator: Adobe Illustrator 16.0.0, SVG Export Plug-In . SVG Version: 6.00 Build 0)  -->

<svg
   xmlns:dc="http://purl.org/dc/elements/1.1/"
   xmlns:cc="http://creativecommons.org/ns#"
   xmlns:rdf="http://www.w3.org/1999/02/22-rdf-syntax-ns#"
   xmlns:svg="http://www.w3.org/2000/svg"
   xmlns="http://www.w3.org/2000/svg"
   xmlns:sodipodi="http://sodipodi.sourceforge.net/DTD/sodipodi-0.dtd"
   xmlns:inkscape="http://www.inkscape.org/namespaces/inkscape"
   version="1.1"
   id="Layer_1"
   x="0px"
   y="0px"
   width="20"
   height="20"
   viewBox="0 0 20.000001 19.999999"
   enable-background="new 0 0 36.663 36.664"
   xml:space="preserve"
   sodipodi:docname="inst.svg"
   inkscape:version="0.92.1 r15371"><metadata
   id="metadata23"><rdf:RDF><cc:Work
       rdf:about=""><dc:format>image/svg+xml</dc:format><dc:type
         rdf:resource="http://purl.org/dc/dcmitype/StillImage" /><dc:title></dc:title></cc:Work></rdf:RDF></metadata><defs
   id="defs21" /><sodipodi:namedview
   pagecolor="#ffffff"
   bordercolor="#666666"
   borderopacity="1"
   objecttolerance="10"
   gridtolerance="10"
   guidetolerance="10"
   inkscape:pageopacity="0"
   inkscape:pageshadow="2"
   inkscape:window-width="1366"
   inkscape:window-height="714"
   id="namedview19"
   showgrid="true"
   inkscape:snap-grids="false"
   fit-margin-top="0"
   fit-margin-left="0"
   fit-margin-right="0"
   fit-margin-bottom="0"
   inkscape:zoom="6.4368315"
   inkscape:cx="18.331499"
   inkscape:cy="18.331999"
   inkscape:window-x="-8"
   inkscape:window-y="-8"
   inkscape:window-maximized="1"
   inkscape:current-layer="Layer_1"><inkscape:grid
     type="xygrid"
     id="grid25"
     originx="0"
     originy="-1.4648437e-006" /></sodipodi:namedview>
<path
   d="M 17.623152,0 H 2.3768479 C 1.0637717,0 0,1.061532 0,2.372354 V 17.628191 C 0,18.937377 1.0637717,20 2.3768479,20 H 17.622606 C 18.935683,20 20,18.937923 20,17.628191 V 2.372354 C 20.000545,1.061532 18.936228,0 17.623152,0 M 14.375648,3.125136 C 14.375648,2.780384 14.655501,2.5 15.000818,2.5 h 1.875512 c 0.344771,0 0.624624,0.280384 0.624624,0.625136 v 1.875409 c 0,0.345298 -0.279853,0.625137 -0.624624,0.625137 h -1.875512 c -0.345317,0 -0.62517,-0.279839 -0.62517,-0.625137 z M 10.023457,6.18645 c 2.124271,0 3.84649,1.717761 3.84649,3.836461 0,2.119245 -1.722219,3.837006 -3.84649,3.837006 -2.1242699,0 -3.8464891,-1.717216 -3.8464891,-3.837006 0,-2.1187 1.7222192,-3.836461 3.8464891,-3.836461 m 8.102122,11.313005 c 0,0.345297 -0.279853,0.625136 -0.62517,0.625136 H 2.5001364 c -0.3453167,0 -0.6251705,-0.280384 -0.6251705,-0.625136 V 8.125136 H 4.3751022 C 4.0494244,8.59317 3.9397741,9.468143 3.9397741,10.022911 c 0,3.346607 2.7292564,6.069714 6.0836829,6.069714 3.354427,0 6.084229,-2.723107 6.084229,-6.069714 0,-0.555313 -0.0791,-1.416103 -0.482788,-1.897775 h 2.500136 v 9.374319 z"
   id="path16"
   inkscape:connector-curvature="0"
   style="fill:#ffffff;stroke-width:0.5455091" />
</svg>