<?xml version="1.0" encoding="UTF-8" standalone="no"?>
<!-- Generator: Adobe Illustrator 16.0.0, SVG Export Plug-In . SVG Version: 6.00 Build 0)  -->

<svg
   xmlns:dc="http://purl.org/dc/elements/1.1/"
   xmlns:cc="http://creativecommons.org/ns#"
   xmlns:rdf="http://www.w3.org/1999/02/22-rdf-syntax-ns#"
   xmlns:svg="http://www.w3.org/2000/svg"
   xmlns="http://www.w3.org/2000/svg"
   xmlns:sodipodi="http://sodipodi.sourceforge.net/DTD/sodipodi-0.dtd"
   xmlns:inkscape="http://www.inkscape.org/namespaces/inkscape"
   version="1.1"
   id="Layer_1"
   x="0px"
   y="0px"
   width="20.000006"
   height="17.000002"
   viewBox="0 0 20.000006 17.000002"
   enable-background="new 0 0 37.453 31.21"
   xml:space="preserve"
   sodipodi:docname="twitter.svg"
   inkscape:version="0.92.1 r15371"><metadata
   id="metadata74"><rdf:RDF><cc:Work
       rdf:about=""><dc:format>image/svg+xml</dc:format><dc:type
         rdf:resource="http://purl.org/dc/dcmitype/StillImage" /><dc:title></dc:title></cc:Work></rdf:RDF></metadata><defs
   id="defs72" /><sodipodi:namedview
   pagecolor="#ffffff"
   bordercolor="#666666"
   borderopacity="1"
   objecttolerance="10"
   gridtolerance="10"
   guidetolerance="10"
   inkscape:pageopacity="0"
   inkscape:pageshadow="2"
   inkscape:window-width="1366"
   inkscape:window-height="714"
   id="namedview70"
   showgrid="false"
   fit-margin-top="0"
   fit-margin-left="0"
   fit-margin-right="0"
   fit-margin-bottom="0"
   inkscape:zoom="7.5616792"
   inkscape:cx="18.7265"
   inkscape:cy="15.605"
   inkscape:window-x="-8"
   inkscape:window-y="-8"
   inkscape:window-maximized="1"
   inkscape:current-layer="Layer_1" />
<path
   d="M 19.448895,0.31428 C 18.655346,0.805581 17.777956,1.162891 16.840756,1.354074 16.094735,0.520714 15.027769,0 13.846524,0 11.582292,0 9.7442059,1.92163 9.7442059,4.291532 c 0,0.336612 0.035245,0.662875 0.1057354,0.977155 C 6.4402435,5.089488 3.41664,3.383006 1.391648,0.78325 1.0381288,1.419435 0.83627043,2.156932 0.83627043,2.943449 c 0,1.487521 0.72412687,2.801833 1.82526967,3.571466 C 1.9902809,6.494215 1.3564029,6.299221 0.80262736,5.980584 v 0.05229 c 0,2.080132 1.41407664,3.814937 3.29328204,4.207651 -0.3444409,0.101311 -0.7070383,0.150876 -1.0813841,0.150876 -0.2643384,0 -0.5228026,-0.0256 -0.7727225,-0.07571 0.5228026,1.704303 2.0372744,2.945628 3.8337072,2.978854 -1.4044644,1.151997 -3.1741963,1.838294 -5.09665707,1.838294 -0.33055644,0 -0.65790879,-0.02015 -0.97885293,-0.05937 1.8156574,1.215725 3.9736196,1.926532 6.2896508,1.926532 7.5488622,0 11.6752112,-6.538336 11.6752112,-12.210086 0,-0.186825 -0.0032,-0.373106 -0.01121,-0.556118 0.802094,-0.605684 1.498986,-1.36061 2.046353,-2.221204 -0.734807,0.340969 -1.525686,0.571913 -2.356082,0.675403 0.848018,-0.530518 1.498451,-1.371504 1.804977,-2.373715"
   id="path67"
   inkscape:connector-curvature="0"
   style="fill:#ffffff;stroke-width:0.53932196" />
</svg>