<?xml version="1.0" encoding="UTF-8" standalone="no"?>
<!-- Generator: Adobe Illustrator 16.0.0, SVG Export Plug-In . SVG Version: 6.00 Build 0)  -->

<svg
   xmlns:dc="http://purl.org/dc/elements/1.1/"
   xmlns:cc="http://creativecommons.org/ns#"
   xmlns:rdf="http://www.w3.org/1999/02/22-rdf-syntax-ns#"
   xmlns:svg="http://www.w3.org/2000/svg"
   xmlns="http://www.w3.org/2000/svg"
   xmlns:xlink="http://www.w3.org/1999/xlink"
   xmlns:sodipodi="http://sodipodi.sourceforge.net/DTD/sodipodi-0.dtd"
   xmlns:inkscape="http://www.inkscape.org/namespaces/inkscape"
   version="1.1"
   id="Layer_1"
   x="0px"
   y="0px"
   width="23"
   height="13"
   viewBox="0 0 23 13"
   enable-background="new 0 0 126 72"
   xml:space="preserve"
   sodipodi:docname="vk.svg"
   inkscape:version="0.92.1 r15371"><metadata
   id="metadata44"><rdf:RDF><cc:Work
       rdf:about=""><dc:format>image/svg+xml</dc:format><dc:type
         rdf:resource="http://purl.org/dc/dcmitype/StillImage" /><dc:title></dc:title></cc:Work></rdf:RDF></metadata><defs
   id="defs42" /><sodipodi:namedview
   pagecolor="#ffffff"
   bordercolor="#666666"
   borderopacity="1"
   objecttolerance="10"
   gridtolerance="10"
   guidetolerance="10"
   inkscape:pageopacity="0"
   inkscape:pageshadow="2"
   inkscape:window-width="1366"
   inkscape:window-height="714"
   id="namedview40"
   showgrid="true"
   fit-margin-top="0"
   fit-margin-left="0"
   fit-margin-right="0"
   fit-margin-bottom="0"
   inkscape:zoom="21.396825"
   inkscape:cx="15.231285"
   inkscape:cy="6.4741908"
   inkscape:window-x="-8"
   inkscape:window-y="-8"
   inkscape:window-maximized="1"
   inkscape:current-layer="Layer_1"><inkscape:grid
     type="xygrid"
     id="grid46"
     originx="0"
     originy="1.1003984e-007" /></sodipodi:namedview>
<g
   id="g37"
   transform="scale(0.18373077,0.18200627)">
	<g
   id="g35">
		<defs
   id="defs28">
			<rect
   id="SVGID_1_"
   width="126"
   height="72"
   x="0"
   y="0" />
		</defs>
		<clipPath
   id="SVGID_2_">
			<use
   xlink:href="#SVGID_1_"
   overflow="visible"
   id="use30"
   style="overflow:visible"
   x="0"
   y="0"
   width="100%"
   height="100%" />
		</clipPath>
		<path
   clip-path="url(#SVGID_2_)"
   d="m 124.523,64.503 c -0.152,-0.328 -0.293,-0.597 -0.426,-0.816 -2.172,-3.91 -6.324,-8.711 -12.449,-14.401 l -0.129,-0.134 -0.066,-0.063 -0.066,-0.066 h -0.063 c -2.781,-2.651 -4.543,-4.434 -5.281,-5.344 -1.348,-1.738 -1.652,-3.5 -0.914,-5.281 0.523,-1.348 2.477,-4.19 5.867,-8.538 1.781,-2.302 3.195,-4.149 4.234,-5.539 7.52,-9.996 10.777,-16.383 9.777,-19.164 L 124.62,4.508 c -0.262,-0.39 -0.934,-0.75 -2.02,-1.074 -1.086,-0.327 -2.477,-0.383 -4.172,-0.163 L 99.656,3.398 C 99.355,3.293 98.918,3.299 98.355,3.432 97.789,3.562 97.503,3.627 97.503,3.627 L 97.18,3.793 96.922,3.988 c -0.219,0.129 -0.457,0.354 -0.719,0.683 -0.258,0.325 -0.477,0.707 -0.648,1.142 -2.047,5.258 -4.367,10.145 -6.977,14.663 -1.609,2.695 -3.086,5.031 -4.434,7.009 -1.348,1.976 -2.477,3.434 -3.387,4.366 -0.914,0.935 -1.738,1.685 -2.477,2.246 -0.742,0.567 -1.305,0.806 -1.695,0.72 -0.391,-0.091 -0.762,-0.177 -1.109,-0.263 -0.609,-0.39 -1.098,-0.922 -1.465,-1.597 -0.371,-0.672 -0.621,-1.52 -0.75,-2.543 -0.129,-1.021 -0.207,-1.899 -0.23,-2.637 -0.02,-0.738 -0.008,-1.785 0.035,-3.129 0.043,-1.349 0.066,-2.263 0.066,-2.738 0,-1.653 0.031,-3.446 0.094,-5.379 0.066,-1.935 0.121,-3.465 0.164,-4.594 0.043,-1.13 0.066,-2.324 0.066,-3.587 0,-1.258 -0.078,-2.245 -0.23,-2.965 C 73.078,4.67 72.847,3.975 72.542,3.299 72.237,2.627 71.792,2.105 71.206,1.737 70.62,1.366 69.893,1.073 69.026,0.854 66.721,0.333 63.788,0.052 60.226,0.005 52.144,-0.081 46.952,0.443 44.647,1.572 43.733,2.048 42.909,2.701 42.171,3.525 41.39,4.482 41.28,5.004 41.843,5.09 c 2.609,0.392 4.453,1.325 5.543,2.802 l 0.39,0.784 c 0.305,0.563 0.61,1.563 0.911,2.996 0.304,1.435 0.5,3.021 0.585,4.758 0.219,3.173 0.219,5.888 0,8.149 -0.214,2.257 -0.421,4.019 -0.617,5.277 -0.195,1.262 -0.488,2.28 -0.879,3.065 -0.39,0.782 -0.652,1.258 -0.785,1.435 -0.129,0.172 -0.238,0.28 -0.324,0.323 -0.566,0.22 -1.152,0.328 -1.762,0.328 -0.605,0 -1.344,-0.304 -2.215,-0.914 -0.867,-0.608 -1.769,-1.444 -2.703,-2.512 -0.933,-1.062 -1.988,-2.55 -3.164,-4.464 -1.172,-1.911 -2.386,-4.168 -3.648,-6.778 l -1.043,-1.89 C 31.479,17.234 30.589,15.464 29.46,13.136 28.331,10.813 27.331,8.567 26.464,6.391 26.116,5.481 25.593,4.786 24.897,4.304 L 24.573,4.11 C 24.354,3.938 24.007,3.754 23.53,3.554 23.05,3.36 22.554,3.218 22.03,3.132 L 4.172,3.265 c -1.824,0 -3.063,0.414 -3.715,1.238 L 0.195,4.895 C 0.066,5.113 0,5.46 0,5.938 0,6.418 0.129,7.003 0.391,7.7 3,13.824 5.832,19.734 8.898,25.425 c 3.063,5.696 5.723,10.278 7.981,13.754 2.262,3.478 4.562,6.758 6.91,9.84 2.348,3.086 3.902,5.063 4.66,5.935 0.762,0.871 1.36,1.519 1.793,1.953 l 1.629,1.565 c 1.043,1.043 2.574,2.293 4.598,3.746 2.02,1.457 4.258,2.891 6.711,4.305 2.457,1.41 5.312,2.563 8.574,3.453 3.258,0.892 6.43,1.25 9.516,1.074 h 7.496 c 1.52,-0.129 2.672,-0.609 3.453,-1.433 l 0.258,-0.324 c 0.176,-0.262 0.34,-0.665 0.488,-1.208 0.152,-0.542 0.23,-1.14 0.23,-1.792 -0.043,-1.868 0.098,-3.551 0.422,-5.051 0.324,-1.496 0.695,-2.625 1.109,-3.388 0.414,-0.762 0.879,-1.401 1.402,-1.922 0.52,-0.522 0.891,-0.836 1.109,-0.944 0.215,-0.11 0.387,-0.185 0.52,-0.231 1.043,-0.347 2.27,-0.007 3.684,1.012 1.41,1.024 2.734,2.281 3.977,3.781 1.238,1.5 2.727,3.184 4.461,5.051 1.742,1.867 3.262,3.258 4.563,4.172 l 1.305,0.781 c 0.871,0.524 2,1 3.391,1.435 1.391,0.437 2.605,0.547 3.648,0.327 l 16.688,-0.262 c 1.648,0 2.934,-0.272 3.844,-0.815 0.914,-0.544 1.453,-1.142 1.629,-1.789 0.176,-0.653 0.184,-1.392 0.035,-2.22 -0.158,-0.824 -0.31,-1.402 -0.459,-1.727 z m 0,0"
   id="path33"
   inkscape:connector-curvature="0"
   style="fill:#ffffff" />
	</g>
</g>
</svg>